<svg viewBox="0 0 48 48" xmlns="http://www.w3.org/2000/svg" xmlns:xlink="http://www.w3.org/1999/xlink"><style>:root&gt;svg{display:none}:root&gt;svg:target{display:block}</style><svg fill="none" viewBox="0 0 48 48" id="button-next" xmlns="http://www.w3.org/2000/svg"><path d="M22 19l5.25 5L22 29" stroke="#fff" stroke-width="2" stroke-linecap="round" stroke-linejoin="round"/><path d="M24 47C11.297 47 1 36.703 1 24h-2c0 13.807 11.193 25 25 25v-2zm23-23c0 12.703-10.297 23-23 23v2c13.807 0 25-11.193 25-25h-2zM24 1c12.703 0 23 10.297 23 23h2C49 10.193 37.807-1 24-1v2zm0-2C10.193-1-1 10.193-1 24h2C1 11.297 11.297 1 24 1v-2z" fill="#fff"/></svg><svg fill="none" viewBox="0 0 48 48" id="button-prev" xmlns="http://www.w3.org/2000/svg"><path d="M26 29l-5.25-5L26 19" stroke="#fff" stroke-width="2" stroke-linecap="round" stroke-linejoin="round"/><path d="M24 1c12.703 0 23 10.297 23 23h2C49 10.193 37.807-1 24-1v2zM1 24C1 11.297 11.297 1 24 1v-2C10.193-1-1 10.193-1 24h2zm23 23C11.297 47 1 36.703 1 24h-2c0 13.807 11.193 25 25 25v-2zm0 2c13.807 0 25-11.193 25-25h-2c0 12.703-10.297 23-23 23v2z" fill="#fff"/></svg><svg fill="none" viewBox="0 0 24 24" id="cart" xmlns="http://www.w3.org/2000/svg"><path d="M3 6a1 1 0 011-1h3a1 1 0 01.96.718l2.288 7.782h6.971l1-4H12a1 1 0 110-2h7.5a1 1 0 01.97 1.243l-1.5 6a1 1 0 01-.97.757H9.5a1 1 0 01-.96-.718L6.253 7H4a1 1 0 01-1-1zm8 12a2 2 0 11-4 0 2 2 0 014 0zm7 2a2 2 0 100-4 2 2 0 000 4z" fill="#fff"/></svg><svg fill="none" viewBox="0 0 10 18" id="facebook" xmlns="http://www.w3.org/2000/svg"><path d="M6.397 17.997V9.8h2.765l.411-3.21H6.397V4.549c0-.926.258-1.56 1.587-1.56h1.684V.127A22.336 22.336 0 007.201 0C4.757 0 3.079 1.492 3.079 4.23v2.356H.332v3.209h2.753v8.202h3.312z" fill="#fff"/></svg><svg fill="none" viewBox="0 0 24 24" id="go-black" xmlns="http://www.w3.org/2000/svg"><path opacity=".6" d="M10 7l5.25 5L10 17" stroke="#21232E" stroke-width="2" stroke-linecap="round" stroke-linejoin="round"/><path opacity=".3" d="M5 7l5.25 5L5 17" stroke="#21232E" stroke-width="2" stroke-linecap="round" stroke-linejoin="round"/><path d="M15 7l5.25 5L15 17" stroke="#21232E" stroke-width="2" stroke-linecap="round" stroke-linejoin="round"/></svg><svg fill="none" viewBox="0 0 24 24" id="go-grean" xmlns="http://www.w3.org/2000/svg"><path opacity=".6" d="M10 7l5.25 5L10 17" stroke="#fff" stroke-width="2" stroke-linecap="round" stroke-linejoin="round"/><path opacity=".3" d="M5 7l5.25 5L5 17" stroke="#fff" stroke-width="2" stroke-linecap="round" stroke-linejoin="round"/><path d="M15 7l5.25 5L15 17" stroke="#fff" stroke-width="2" stroke-linecap="round" stroke-linejoin="round"/></svg><svg fill="none" viewBox="0 0 32 32" id="hp_system" xmlns="http://www.w3.org/2000/svg"><g opacity=".4" fill="#D3D4D7"><path d="M14.628 10.745a3.924 3.924 0 01-3.925 3.924 3.924 3.924 0 110-7.847 3.924 3.924 0 013.925 3.923zm10.593 0a3.924 3.924 0 01-3.925 3.924 3.924 3.924 0 110-7.847 3.924 3.924 0 013.925 3.923zm-10.593 10.51a3.924 3.924 0 01-3.925 3.924 3.924 3.924 0 110-7.848 3.924 3.924 0 013.925 3.924zm10.593 0a3.924 3.924 0 01-3.925 3.924 3.924 3.924 0 110-7.848 3.924 3.924 0 013.925 3.924z"/><path fill-rule="evenodd" clip-rule="evenodd" d="M32 16c0-8.823-7.177-16-16-16S0 7.177 0 16c0 8.676 6.94 15.76 15.56 15.994L16 32c8.823 0 16-7.177 16-16zM1.426 16c0-7.892 6.31-14.34 14.152-14.563L16 1.43c8.036 0 14.574 6.536 14.574 14.569 0 8.033-6.538 14.569-14.574 14.569S1.426 24.033 1.426 15.999z"/></g></svg><svg fill="none" viewBox="0 0 24 24" id="instagram" xmlns="http://www.w3.org/2000/svg"><path d="M11.999 7.377a4.623 4.623 0 100 9.248 4.623 4.623 0 000-9.248zm0 7.627a3.004 3.004 0 110-6.008 3.004 3.004 0 010 6.008zm4.807-6.719a1.078 1.078 0 100-2.156 1.078 1.078 0 000 2.156z" fill="#fff"/><path d="M20.533 6.11A4.605 4.605 0 0017.9 3.48a6.606 6.606 0 00-2.186-.42c-.963-.042-1.268-.054-3.71-.054s-2.755 0-3.71.054a6.554 6.554 0 00-2.184.42 4.6 4.6 0 00-2.633 2.63 6.585 6.585 0 00-.419 2.186c-.043.962-.056 1.267-.056 3.71 0 2.442 0 2.753.056 3.71.015.748.156 1.486.419 2.187a4.61 4.61 0 002.634 2.632 6.584 6.584 0 002.185.45c.963.042 1.268.055 3.71.055s2.755 0 3.71-.055a6.615 6.615 0 002.186-.42 4.613 4.613 0 002.633-2.632c.263-.7.404-1.438.419-2.186.043-.962.056-1.267.056-3.71s0-2.753-.056-3.71a6.581 6.581 0 00-.421-2.217zm-1.218 9.533a5.043 5.043 0 01-.311 1.688 2.987 2.987 0 01-1.712 1.71 4.985 4.985 0 01-1.67.312c-.95.044-1.218.055-3.654.055-2.438 0-2.687 0-3.655-.055a4.96 4.96 0 01-1.669-.311 2.985 2.985 0 01-1.719-1.711 5.08 5.08 0 01-.311-1.67c-.043-.95-.053-1.217-.053-3.653 0-2.437 0-2.686.053-3.655a5.038 5.038 0 01.311-1.687c.305-.79.93-1.41 1.719-1.712a5.01 5.01 0 011.669-.311c.951-.043 1.218-.055 3.655-.055s2.687 0 3.654.055a4.96 4.96 0 011.67.31 2.991 2.991 0 011.712 1.713 5.08 5.08 0 01.311 1.669c.043.95.054 1.218.054 3.655 0 2.436 0 2.698-.043 3.654h-.011v-.001z" fill="#fff"/></svg><svg fill="none" viewBox="0 0 24 24" id="scale" xmlns="http://www.w3.org/2000/svg"><path fill-rule="evenodd" clip-rule="evenodd" d="M13 4a1 1 0 10-2 0v1H6.5a.979.979 0 00-.25.032 1 1 0 00-1.179.597l-1.996 4.99c-.114.276-.075.59-.075.881a3.5 3.5 0 107 0c0-.291.039-.605-.075-.881L8.477 7H11v11H9.5a1 1 0 100 2H15a1 1 0 100-2h-2V7h2.523l-1.448 3.619c-.114.276-.075.59-.075.881a3.5 3.5 0 107 0c0-.291.038-.605-.075-.881l-1.992-4.98A.995.995 0 0017.977 5H13V4zM6.5 7.442L7.523 10H5.477L6.5 7.442zM5.085 12a1.5 1.5 0 002.83 0h-2.83zM17.5 7.442L16.477 10h2.046L17.5 7.442zM16.085 12a1.5 1.5 0 002.83 0h-2.83z" fill="#fff"/></svg></svg>