<svg width="39" height="39" fill="none" xmlns="http://www.w3.org/2000/svg"><path d="M19.5 0l2.53 1.897L24.995.79l1.894 2.533 3.154-.227 1.104 2.964 3.091.67.224 3.155 2.777 1.514-.674 3.09 2.237 2.236-1.517 2.775 1.517 2.775-2.237 2.235.674 3.09-2.777 1.515-.224 3.155-3.091.67-1.104 2.964-3.154-.227-1.894 2.533-2.963-1.107L19.5 39l-2.53-1.897-2.964 1.107-1.894-2.533-3.155.227-1.103-2.964-3.091-.67-.224-3.155L1.762 27.6l.674-3.09-2.238-2.236L1.716 19.5.198 16.725l2.238-2.235-.674-3.09L4.54 9.884l.224-3.155 3.091-.67 1.103-2.964 3.155.227L14.006.79l2.963 1.107L19.5 0z" fill="#78BC27"/><path fill-rule="evenodd" clip-rule="evenodd" d="M20.032 16.64L19.6 19h4.03c.41 0 .955.224 1.473.935.515.708.896 1.786.896 3.065 0 1.28-.38 2.357-.896 3.065-.518.71-1.063.935-1.473.935H16v-8.085l.483-1.126 1.719-4.002c.112-.172.368-.39.796-.51.47-.131.868-.064 1.07.043.295.157.405.276.438.317a.12.12 0 01.031.064c.009.043.019.142-.005.34a8.018 8.018 0 01-.148.764l-.003.013c-.038.17-.083.373-.122.578l-.001.01-.226 1.234zm.977-5.085c-1.488-.793-3.783-.194-4.6 1.337L14.646 17H11a1 1 0 00-1 1v10a1 1 0 001 1h12.63c2.414 0 4.37-2.686 4.37-6 0-3.13-1.745-5.7-3.972-5.976A3.231 3.231 0 0023.63 17h-1.632l.226-1.235c.032-.17.071-.346.111-.524L22.39 15c.26-1.194.42-2.485-1.38-3.445zM12 27v-8h2v8h-2z" fill="#fff"/></svg>