<svg width="24" height="24" fill="none" xmlns="http://www.w3.org/2000/svg"><path fill-rule="evenodd" clip-rule="evenodd" d="M13 4a1 1 0 10-2 0v1H6.5a.979.979 0 00-.25.032 1 1 0 00-1.179.597l-1.996 4.99c-.114.276-.075.59-.075.881a3.5 3.5 0 107 0c0-.291.039-.605-.075-.881L8.477 7H11v11H9.5a1 1 0 100 2H15a1 1 0 100-2h-2V7h2.523l-1.448 3.619c-.114.276-.075.59-.075.881a3.5 3.5 0 107 0c0-.291.038-.605-.075-.881l-1.992-4.98A.995.995 0 0017.977 5H13V4zM6.5 7.442L7.523 10H5.477L6.5 7.442zM5.085 12a1.5 1.5 0 002.83 0h-2.83zM17.5 7.442L16.477 10h2.046L17.5 7.442zM16.085 12a1.5 1.5 0 002.83 0h-2.83z" fill="#fff"/></svg>