<svg width="0" height="0" class="hidden">
    <symbol fill="none" xmlns="http://www.w3.org/2000/svg" viewBox="0 0 24 24" id="cart">
        <path d="M3 6a1 1 0 011-1h3a1 1 0 01.96.718l2.288 7.782h6.971l1-4H12a1 1 0 110-2h7.5a1 1 0 01.97 1.243l-1.5 6a1 1 0 01-.97.757H9.5a1 1 0 01-.96-.718L6.253 7H4a1 1 0 01-1-1zm8 12a2 2 0 11-4 0 2 2 0 014 0zm7 2a2 2 0 100-4 2 2 0 000 4z" fill="#fff"></path>
    </symbol>
    <symbol fill="none" xmlns="http://www.w3.org/2000/svg" viewBox="0 0 24 24" id="scale">
        <path fill-rule="evenodd" clip-rule="evenodd" d="M13 4a1 1 0 10-2 0v1H6.5a.979.979 0 00-.25.032 1 1 0 00-1.179.597l-1.996 4.99c-.114.276-.075.59-.075.881a3.5 3.5 0 107 0c0-.291.039-.605-.075-.881L8.477 7H11v11H9.5a1 1 0 100 2H15a1 1 0 100-2h-2V7h2.523l-1.448 3.619c-.114.276-.075.59-.075.881a3.5 3.5 0 107 0c0-.291.038-.605-.075-.881l-1.992-4.98A.995.995 0 0017.977 5H13V4zM6.5 7.442L7.523 10H5.477L6.5 7.442zM5.085 12a1.5 1.5 0 002.83 0h-2.83zM17.5 7.442L16.477 10h2.046L17.5 7.442zM16.085 12a1.5 1.5 0 002.83 0h-2.83z" fill="#fff"></path>
    </symbol>
</svg>